<?xml version="1.0" encoding="utf-8"?>
<!-- Generator: Adobe Illustrator 24.0.1, SVG Export Plug-In . SVG Version: 6.00 Build 0)  -->
<svg version="1.1" id="Layer_1" xmlns="http://www.w3.org/2000/svg" xmlns:xlink="http://www.w3.org/1999/xlink" x="0px" y="0px"
	 viewBox="0 0 1140.6 787.3" style="enable-background:new 0 0 1140.6 787.3;" xml:space="preserve">
<style type="text/css">
	.st0{opacity:0.2;fill:#F8B58B;enable-background:new    ;}
	.st1{fill:#565387;}
	.st2{fill:#EB5D1E;}
	.st3{fill:#F8B58B;}
	.st4{fill:#E3E8F4;}
	.st5{fill:#30374E;}
	.st6{fill:#434175;}
	.st7{fill:#414342;}
	.st8{fill:#AFC0E0;}
	.st9{fill:#1F62AE;}
	.st10{fill:#347DC6;}
	.st11{fill:#FFFFFF;}
	.st12{fill:#8E714E;}
	.st13{fill:#442D22;}
	.st14{fill:#A6A385;}
	.st15{fill:#499D4A;}
	.st16{fill:#58AA50;}
	.st17{fill:#46483E;}
	.st18{fill:#81CF08;}
	.st19{fill:#292929;}
	.st20{fill:#00DBFC;}
	.st21{fill:#6181B6;}
	.st22{fill:#32373C;}
	.st23{fill:#F0DB4F;}
	.st24{fill:#323330;}
	.st25{fill:#F16529;}
</style>
<path class="st0" d="M51.1,663.8c31.5-31.9,79.9-18.2,81.8-17.5c20.5,7.2,36.8,22.2,56.1,32.1c19.2,9.9,45.4,13.4,61-1.2
	c15.8-14.8,12.6-40.4,2-59c-10.5-18.6-26.9-33.8-36-53.1c-13.2-27.8-9.1-62.4,10.3-86.6s53.2-36.8,84.5-31.6s58.2,26.4,89.7,29.4
	c40,3.8,80-27.2,84.6-65.6c3.7-30.7-12.7-60.4-31.4-85.5c-18.8-25.2-40.8-48.9-51.4-78.1c-14.3-39.3-3.7-86.9,28.9-114.4
	s86-30.4,119.3-3.7c27,21.6,37.6,56.9,61.6,81.6c36.7,37.8,104.7,42.1,146.1,9.2c21.2-16.8,35.1-41,56.5-57.6
	c21.4-16.5,57.1-22.3,74-1.5c17.4,21.5,8.2,62.3,35.1,71.1c10.7,3.5,22.4-0.8,33.7-1.2c11.3-0.5,15.4,50,13.5,60.7
	c0,137.6,61.4,357.2,14.7,432.6c-24.6,39.8-89.2,39.2-94.7,39.8c-226.5,24.9-627.1,22.8-784-13.8C54.6,737.7,43.6,671.5,51.1,663.8
	L51.1,663.8z"/>
<ellipse class="st1" cx="789.9" cy="723.5" rx="270" ry="37.7"/>
<path class="st2" d="M884.7,424.5c-6.6-9.7-31.1-17.8-42.4-20.9c-4.3-1.2-27.2,5.5-41.4,5.2c-19.5-0.4-39.3-9.3-55.4-5.3
	c-16,4-36.9,9.7-43.3,16.4c-16.5,17.5-27.6,45.4-37.2,73.7c15.3,15.7,34.5,22.7,34.5,22.7l3.6,144.1l85.2,43.6l97.3-48.8l-3.5-140.8
	c0,0,33-13.9,33.2-19.6C915.5,488.1,902,449.7,884.7,424.5L884.7,424.5z"/>
<path class="st3" d="M914.3,495.5c2.2,6.8,9.7,38.2,9.7,63.4c0,25.7-24.2,51.6-52.2,81.3c-0.2,0.2-15.7,10.1-16,10.1
	c-17.4-2.7-8.2-23.8-7.3-28.6c0.1-0.4,0.4-0.8,0.8-0.9c5.3-1.7,39.2-16.1,28.1-103.9c-0.1-0.4,0.1-0.8,0.4-1.1
	c10-8,29.4-18.2,34.6-20.9C913.2,494.4,914,494.8,914.3,495.5z"/>
<path class="st3" d="M667.7,495.5c-2.2,6.8-9.7,38.2-9.7,63.4c0,25.7,24.2,51.6,52.2,81.3c0.2,0.2,15.7,10.1,16,10.1
	c17.4-2.7,8.2-23.8,7.3-28.6c-0.1-0.4-0.4-0.8-0.8-0.9c-5.3-1.7-39.2-16.1-28.1-103.9c0.1-0.4-0.1-0.8-0.4-1.1
	c-10-8-29.4-18.2-34.6-20.9C668.8,494.4,667.9,494.8,667.7,495.5z"/>
<path class="st4" d="M708.2,664.1h170.2c4.6,0,8.3-3.8,8.3-8.3V546.2c0-4.6-3.8-8.3-8.3-8.3H708.2c-4.6,0-8.3,3.8-8.3,8.3v109.5
	C699.8,660.3,703.6,664.1,708.2,664.1L708.2,664.1z"/>
<path class="st5" d="M617.9,701.5c21.4-4.9,70.8-2.3,70.8-2.3l2,5.4l3.3,27.1c0,0-47.1,8.5-70.3,8.5c-2.4,0-4.5-0.4-6.5-1
	c-0.7-0.6-1.4-1.3-2.1-2C605.3,726.5,608.2,710.7,617.9,701.5z"/>
<path class="st3" d="M702.9,697.7l-8.4,0.4c-4.5,0.2-8.7,2.4-11.8,6.1c-3,3.7-4.6,8.6-4.3,13.6c0.2,4,1.8,7.7,4.5,10.3
	s6.2,4,9.8,3.7l12.8-0.9L702.9,697.7z"/>
<path class="st5" d="M984.3,698.9c-21.5-4.3-70.8-0.1-70.8-0.1l-1.9,5.5l-2.7,27.2c0,0,47.3,7,70.5,6.3c2.4-0.1,4.5-0.5,6.5-1.2
	c0.7-0.7,1.4-1.3,2-2.1C997.5,723.5,994.2,707.8,984.3,698.9L984.3,698.9z"/>
<path class="st3" d="M899.2,697.7l8.4,0.1c4.5,0.1,8.8,2.1,11.9,5.7s4.8,8.4,4.7,13.4c-0.1,4-1.6,7.7-4.3,10.5
	c-2.6,2.7-6.1,4.2-9.7,4l-12.8-0.5L899.2,697.7z"/>
<path class="st6" d="M611.9,616.7c9.7-22.3,33.4-25.9,53.6-15.5c0.4,0.5,128.2,66,241,94.7c-3.2,10.3-4.9,21.4-5.2,32.2
	c-0.1,2.4,0,4.8,0.1,7.1c-86.5-4.4-180.3-33.3-261-58.6C615.4,668.5,601.1,641.4,611.9,616.7L611.9,616.7z"/>
<path class="st6" d="M702.3,729.7c0.3-12.5-2.1-24.1-7.3-34.8c-0.1-0.5-0.3-1-0.5-1.5c6.4-2,14.8-4.7,25.7-8.4
	c80.1-27.4,141.2-55.1,199.5-86.9c22.6-12.4,48.4-4.1,55.6,22.7c6.5,23.9-7.7,44.3-29.3,51.5c-64.5,21.5-30.9,15.5-52,22.3
	c-56.6,17.5-127,33.4-191.8,37.8C702.2,731.6,702.2,730.7,702.3,729.7L702.3,729.7z"/>
<path class="st3" d="M842.3,403.6c0,0-15.9,26.4-49,29.3c-36.4-2.5-47.8-29.5-47.8-29.5l27.8-6l2.3-31l41.8,3.1l0.8,29.4
	L842.3,403.6z"/>
<path class="st3" d="M811.6,278.7c0,0,48,92.9-8.9,115.4c-40.1,15.9-65.3-61.7-57.8-82.7c11.6-32.5,19.2-28.6,19.2-28.6L811.6,278.7
	z"/>
<path class="st7" d="M753.1,278.7c-15,17.8-23.2,49.4,12.4,37.3c35.7-12.1,49.7-12,55.2-2.2c5.6,9.8,0.8,44.1,12.9,26.9
	c6.8-9.8,1.9-53.2-19.9-69.1C793.4,256.8,758.7,272,753.1,278.7L753.1,278.7z"/>
<path class="st3" d="M823,321.8c0,0,10.2-11,11.9,2.3c1.6,13.3-3.6,30.3-9.8,21C818.9,335.7,823,321.8,823,321.8L823,321.8z"/>
<path class="st8" d="M782.2,591.1c-1,6.7,2.6,12.8,9.3,13.8s12.9-3.6,13.9-10.3s-2.1-13.3-8.8-14.3
	C790,579.2,783.2,584.4,782.2,591.1z"/>
<g>
	<path class="st9" d="M1090,429l-43.9,12l-43.9-12L992,317.2h108.2L1090,429z"/>
	<path class="st10" d="M1046.1,325.1v107.2l35.7-10.6l9.4-96.6H1046.1z"/>
	<path class="st11" d="M1078.4,340.5h-64.8l1.5,15.3h31l-29.9,11.6l1.4,15.5h42.1l-1.4,15.5l-12.2,3.9l-12.1-3.9l-1.3-7.7h-14.5
		l1.8,19.2l26,7.8l26-7.8l3.8-42.5h-29.7l30.8-11.6L1078.4,340.5z"/>
</g>
<g>
	<path class="st12" d="M304.7,190.5c-0.2,0-0.5,0.6-0.5,0.8c0,1.9-0.1,6.9-0.1,10.3c0,0.1,0.1,0.2,0.2,0.2c0.7,0,2.3,0.1,3.9,0.1
		c2,0,3.2-0.2,3.9-0.6c1.6-0.8,2.5-2.7,2.5-4.7c0-4.6-3.2-6.3-8-6.3C306.4,190.3,305.4,190.3,304.7,190.5z M316.8,211.4
		c0-4.7-3.4-7.3-9.6-7.3c-0.2,0-2.2,0-2.7,0c-0.1,0-0.4,0.1-0.4,0.2c0,3.4,0,8.7,0.1,10.7c0.1,0.9,0.7,2.1,1.5,2.6
		c0.8,0.5,2.8,0.6,4.1,0.6C313.5,218.4,316.8,216.2,316.8,211.4z M295.1,187.9c0.5,0,1.9,0.1,5.5,0.1c3.4,0,6.2-0.1,9.5-0.1
		c4.1,0,9.7,1.4,9.7,7.6c0,3-2.1,5.4-4.9,6.6c-0.1,0-0.1,0.1,0,0.1c4,0.9,7.4,3.4,7.4,8.1c0,4.4-2.8,7.4-6.9,9.1
		c-2.5,1.1-5.6,1.4-8.8,1.4c-2.3,0-8.8-0.2-12.4-0.1c-0.4-0.1,0.4-1.9,0.7-2.1c0.8,0,1.5-0.1,2.3-0.4c1.3-0.4,1.4-0.7,1.6-2.7
		c0.1-1.6,0.1-7.5,0.1-11.6c0-5.6,0-9.6,0-11.4c0-1.4-0.6-2-1.6-2.2c-0.8-0.1-2.1-0.4-3.2-0.5C293.9,189.7,294.8,188,295.1,187.9
		L295.1,187.9z M268,217.1c1.2,0.9,3.4,1.3,5.3,1.3c2.6,0,5-0.5,7.5-2.7s4.2-5.7,4.2-11.4c0-5.3-2-9.6-6.2-12.2
		c-2.3-1.4-5.4-2.1-8.8-2.1c-1.1,0-2,0-2.7,0.4c-0.1,0.1-0.5,0.6-0.5,0.7c-0.1,0.9-0.1,8.2-0.1,12.4c0,4.3,0,10.5,0.1,11.2
		C266.9,215.5,267.3,216.6,268,217.1z M257.3,187.9c0.9,0,4.3,0.1,6,0.1c2.9,0,5-0.1,10.7-0.1c4.7,0,8.7,1.3,11.5,3.6
		c3.4,2.9,5.3,7,5.3,12.1c0,7-3.3,11.2-6.4,13.5c-3.3,2.3-7.5,3.7-13.5,3.7c-3.2,0-8.7-0.1-13.2-0.1c-0.2-0.5,0.4-2.1,0.7-2.1
		c1.3-0.1,1.5-0.1,2.1-0.5c0.9-0.4,1.2-0.9,1.3-2.7c0.1-3.3,0.1-7.1,0.1-11.6c0-3.2,0-9.2,0-11.4c-0.1-1.6-0.8-2.1-2.2-2.3
		c-0.7-0.1-1.6-0.4-2.9-0.5C256.3,189.6,257.1,188.2,257.3,187.9L257.3,187.9z"/>
	<path class="st13" d="M200.4,218.9c-1.2-0.1-2-0.4-3-0.8c-0.1-0.1-0.4-0.6-0.4-0.7c-0.1-1.6-0.1-6.3-0.1-9.5c0-2.6-0.5-4.8-1.5-6.3
		c-1.3-1.8-3-2.8-5.5-2.8c-2.1,0-4.9,1.4-7.1,3.4c0,0-0.5,0.4-0.4-0.1c0-0.6,0.1-1.5,0.1-2.2s-0.4-0.9-0.4-0.9
		c-1.5,0.7-5.7,1.8-7.3,1.9c-1.2,0.2-1.4,1.3-0.2,1.6c1.3,0.4,2.1,0.8,2.8,1.3c0.5,0.4,0.5,0.9,0.5,1.3c0,3.5,0,8.9-0.1,11.9
		c0,1.2-0.4,1.6-1.3,1.8h0.1c-0.7,0.1-1.2,0.2-2,0.4c-0.2,0.2-0.2,1.8,0,2.1c0.6,0,3.3-0.1,5.5-0.1c3,0,4.7,0.1,5.5,0.1
		c0.4-0.4,0.5-1.8,0.2-2.1c-0.9,0-1.5-0.1-2.1-0.4c-0.8-0.1-1.1-0.6-1.2-1.6c-0.1-2.5-0.1-7.7-0.1-11.4c0-0.9,0.2-1.4,0.6-1.8
		c1.1-0.9,2.8-1.6,4.3-1.6c1.5,0,2.5,0.5,3.3,1.1c1.1,0.8,1.4,2.1,1.5,2.9c0.2,2,0.1,6,0.1,9.5c0,1.9-0.1,2.3-0.8,2.6
		c-0.4,0.1-1.2,0.4-2.1,0.5c-0.4,0.4-0.2,1.8,0,2.1c1.4,0,2.9-0.1,5.3-0.1c2.9,0,4.8,0.1,5.6,0.1
		C200.6,220.7,200.7,219.3,200.4,218.9L200.4,218.9z M213.4,201c-2.5,0-4.1,2-4.1,4.9c0,3,1.4,6.6,5.3,6.6c0.7,0,1.9-0.2,2.5-0.9
		c0.9-0.8,1.5-2.6,1.5-4.3C218.6,203.4,216.7,201,213.4,201L213.4,201z M213.1,221.7c-0.9,0-1.6,0.2-2,0.6c-2,1.3-2.8,2.5-2.8,4
		c0,1.4,0.6,2.5,1.6,3.4c1.4,1.2,3.3,1.8,5.6,1.8c4.8,0,6.9-2.6,6.9-5.1c0-1.8-0.9-2.9-2.7-3.6C218.3,222,216,221.7,213.1,221.7
		L213.1,221.7z M213.4,233.9c-2.8,0-4.9-0.6-6.7-2c-1.8-1.3-2.5-3.3-2.5-4.7c0-0.4,0.1-1.4,0.9-2.3c0.6-0.6,1.6-1.6,4.3-3.5
		c0.1,0,0.1-0.1,0.1-0.1c0-0.1-0.1-0.1-0.1-0.2c-2.2-0.8-2.8-2.2-3-2.9V218c0-0.2-0.1-0.6,0.2-0.8c0.4-0.2,0.8-0.6,1.3-0.8
		c0.8-0.5,1.6-0.9,2.1-1.4c0.1-0.1,0.1-0.1,0.1-0.2c0-0.1-0.1-0.1-0.1-0.2c-3.3-1.1-4.9-3.5-4.9-7.1c0-2.3,1.1-4.6,3-6
		c1.3-1.1,4.6-2.3,6.8-2.3h0.1c2.2,0,3.4,0.6,5.1,1.2c0.9,0.4,1.9,0.5,3,0.5c1.9,0,2.7-0.6,3.3-1.3c0,0.1,0.1,0.4,0.1,0.9
		s-0.1,1.5-0.6,2.1c-0.4,0.6-1.3,0.9-2.1,0.9h-0.2c-0.8-0.1-1.3-0.1-1.3-0.1l-0.1,0.1v0.4v0.1c0.1,0.5,0.2,1.6,0.2,2
		c0,3.9-1.5,5.6-3.2,6.8c-1.6,1.2-3.4,2-5.5,2.1c0,0-0.2,0-0.7,0c-0.2,0-0.6,0-0.6,0c-0.4,0.1-1.3,0.6-1.3,1.4
		c0,0.7,0.5,1.5,2.5,1.6c0.5,0,0.8,0,1.3,0.1c2.7,0.1,6,0.5,7.6,0.9c2.1,0.8,3.5,2.7,3.5,5c0,3.5-2.5,6.7-6.7,8.8
		C217.6,233.4,215.6,233.9,213.4,233.9L213.4,233.9z M240.2,201.3c-0.9,0-1.9,0.2-2.6,0.7c-1.9,1.2-2.8,3.4-2.8,6.7
		c0,6.2,3,10.5,7.5,10.5c1.3,0,2.3-0.4,3.3-1.2c1.4-1.2,2.1-3.4,2.1-6.6C247.7,205.4,244.7,201.3,240.2,201.3L240.2,201.3z
		 M241,221.3c-8,0-10.9-5.9-10.9-11.4c0-3.9,1.5-6.8,4.7-8.9c2.2-1.4,4.9-2.1,7.1-2.1c6.1,0,10.4,4.3,10.4,10.7
		c0,4.2-1.6,7.7-4.9,9.7C246,220.3,243.3,221.3,241,221.3z M157.4,201.3c-0.9,0-1.9,0.2-2.6,0.7c-1.9,1.2-2.8,3.4-2.8,6.7
		c0,6.2,3,10.5,7.5,10.5c1.3,0,2.3-0.4,3.3-1.2c1.4-1.2,2.1-3.4,2.1-6.6C164.9,205.4,161.8,201.3,157.4,201.3L157.4,201.3z
		 M158.2,221.3c-8,0-10.9-5.9-10.9-11.4c0-3.9,1.5-6.8,4.7-8.9c2.2-1.4,4.9-2.1,7.1-2.1c6.1,0,10.4,4.3,10.4,10.7
		c0,4.2-1.6,7.7-4.9,9.7C163.1,220.3,160.4,221.3,158.2,221.3z M104.5,220.8c-0.1-0.1-0.1-0.6-0.1-1.1c0-0.4,0.1-0.6,0.1-0.7
		c0.9-0.1,1.5-0.2,2.1-0.5c0.9-0.2,1.3-0.7,1.4-2c0.1-2.8,0.1-8.2,0.1-11.9v-0.1c0-0.5,0-0.9-0.6-1.3c-0.7-0.5-1.6-0.9-2.8-1.3
		c-0.5-0.1-0.7-0.4-0.7-0.7c0-0.2,0.2-0.6,0.9-0.7c1.5-0.1,5.6-1.2,7.1-1.9c0.1,0.1,0.2,0.4,0.2,0.7v0.6c0,0.6-0.1,1.2-0.1,1.8
		c0,0.1,0.1,0.4,0.4,0.4c0.1,0,0.1,0,0.2-0.1c3-2.3,5.7-3.2,7.1-3.2c2.3,0,4.1,1.1,5.5,3.4c0.1,0.1,0.1,0.1,0.4,0.1
		c0.1,0,0.2,0,0.2-0.1c2.8-2.1,5.6-3.4,7.4-3.4c4.3,0,7,3.3,7,8.8v5.4v4.2c0,0.2,0.4,0.9,0.8,1.2c0.7,0.4,1.5,0.5,2.7,0.7
		c0.1,0.4-0.1,1.5-0.2,1.8c-0.2,0-0.7,0-1.2,0c-0.9,0-2.1-0.1-3.5-0.1c-2.9,0-4.4,0-5.9,0.1c-0.1-0.4-0.1-1.5,0-1.8
		c0.8-0.1,1.3-0.2,1.8-0.5c0.9-0.2,1.2-0.7,1.3-2c0-0.9,0.1-8.4-0.1-10.3c-0.2-1.9-1.6-4.1-4.8-4.1c-1.2,0-3,0.5-4.8,1.9
		c-0.1,0.1-0.1,0.4-0.1,0.5c0.1,0.9,0.1,2.1,0.1,3.9v3v5.6c0,1.1,0.6,1.3,1.2,1.4c0.2,0,0.5,0.1,0.7,0.1c0.5,0.1,0.8,0.1,1.5,0.4
		c0.1,0.1,0.1,0.8,0,1.3c0,0.2-0.1,0.5-0.1,0.5c-1.6,0-3.3-0.1-5.6-0.1c-0.7,0-2,0-2.9,0c-0.8,0-1.6,0-2.1,0c0-0.1-0.1-0.5-0.1-0.9
		c0-0.5,0.1-0.7,0.1-0.8c0.2,0,0.5-0.1,0.7-0.1c0.6-0.1,1.1-0.1,1.5-0.2c0.8-0.2,1.1-0.7,1.2-1.6c0.1-2.3,0.2-9.1,0-10.8
		c-0.6-2.7-2.1-4.1-4.6-4.1c-1.4,0-3.3,0.7-4.8,1.9c-0.2,0.1-0.5,0.7-0.5,1.1v2.8v9.5c0,0.6,0.2,1.3,1.3,1.4c0.2,0,0.6,0.1,1.1,0.1
		l0.8,0.1c0.1,0.2,0,1.4-0.1,1.8c-0.5,0-1.1,0-1.6,0c-0.9,0-2.2-0.1-3.6-0.1c-1.6,0-2.8,0-3.7,0.1
		C105.6,220.8,105,220.8,104.5,220.8L104.5,220.8z"/>
	<path class="st11" d="M79.8,232.2l-2-0.7c0,0,0.2-9.8-3.3-10.5c-2.3-2.7,0.4-115.6,8.8-0.4c0,0-2.9,1.4-3.4,4
		C79.4,226.9,79.8,232.2,79.8,232.2L79.8,232.2z"/>
	<path class="st14" d="M79.8,232.2l-2-0.7c0,0,0.2-9.8-3.3-10.5c-2.3-2.7,0.4-115.6,8.8-0.4c0,0-2.9,1.4-3.4,4
		C79.4,226.9,79.8,232.2,79.8,232.2L79.8,232.2z"/>
	<path class="st11" d="M80.8,222.6c0,0,16.9-11.1,12.9-34.2C90,171.7,80.9,166.2,79.9,164c-1.1-1.5-2.1-4.2-2.1-4.2l0.7,46.7
		C78.6,206.6,77.1,220.9,80.8,222.6"/>
	<path class="st15" d="M80.8,222.6c0,0,16.9-11.1,12.9-34.2C90,171.7,80.9,166.2,79.9,164c-1.1-1.5-2.1-4.2-2.1-4.2l0.7,46.7
		C78.6,206.6,77.1,220.9,80.8,222.6"/>
	<path class="st11" d="M76.8,223.3c0,0-15.8-10.8-14.9-29.8c0.9-19.1,12.1-28.3,14.2-30.1c1.4-1.5,1.5-2.1,1.6-3.5
		c0.9,2.1,0.8,31.6,0.9,35.1C79.1,208.3,77.9,220.7,76.8,223.3z"/>
	<path class="st16" d="M76.8,223.3c0,0-15.8-10.8-14.9-29.8c0.9-19.1,12.1-28.3,14.2-30.1c1.4-1.5,1.5-2.1,1.6-3.5
		c0.9,2.1,0.8,31.6,0.9,35.1C79.1,208.3,77.9,220.7,76.8,223.3z"/>
</g>
<g>
	<path class="st17" d="M392.9,328.5c-32.9,0-59.6,26.7-59.6,59.6s26.7,59.6,59.6,59.6s59.6-26.7,59.6-59.6S425.8,328.5,392.9,328.5z
		"/>
	<path class="st18" d="M392.9,426.1c-1.1,0-2-0.2-3-0.8l-9.3-5.5c-1.4-0.8-0.7-1.1-0.2-1.2c1.9-0.7,2.3-0.8,4.2-1.9
		c0.2-0.1,0.5-0.1,0.7,0.1l7.1,4.3c0.2,0.1,0.6,0.1,0.8,0l27.9-16.1c0.2-0.1,0.5-0.5,0.5-0.7v-32.2c0-0.4-0.1-0.6-0.5-0.7
		l-27.8-16.2c-0.2-0.1-0.6-0.1-0.8,0l-27.9,16c-0.2,0.1-0.5,0.5-0.5,0.7V404c0,0.2,0.1,0.6,0.5,0.7l7.6,4.4c4.2,2,6.7-0.4,6.7-2.9
		v-31.6c0-0.5,0.4-0.8,0.8-0.8h3.6c0.5,0,0.8,0.4,0.8,0.8v31.7c0,5.6-3,8.7-8.2,8.7c-1.7,0-2.9,0-6.4-1.8l-7.3-4.2
		c-1.8-1.1-3-3-3-5.1v-32.2c0-2,1.1-4.1,3-5.1l27.9-16.1c1.8-1,4.2-1,5.8,0l27.9,16.1c1.8,1.1,3,3,3,5.1V404c0,2-1.1,4.1-3,5.1
		l-28,16.2C395,425.8,394,426.1,392.9,426.1L392.9,426.1z"/>
	<path class="st18" d="M401.6,403.9c-12.2,0-14.8-5.6-14.8-10.2c0-0.5,0.4-0.8,0.8-0.8h3.6c0.4,0,0.7,0.2,0.8,0.7
		c0.5,3.7,2.1,5.5,9.5,5.5c5.8,0,8.3-1.3,8.3-4.4c0-1.8-0.7-3.1-9.9-4.1c-7.6-0.7-12.4-2.4-12.4-8.6c0-5.6,4.8-8.9,12.7-8.9
		c8.9,0,13.3,3.1,13.9,9.8c0,0.2-0.1,0.5-0.2,0.6c-0.1,0.1-0.4,0.2-0.6,0.2H410c-0.4,0-0.7-0.2-0.8-0.6c-0.8-3.8-3-5.1-8.7-5.1
		c-6.4,0-7.1,2.3-7.1,3.9c0,2,0.8,2.6,9.5,3.8c8.6,1.1,12.6,2.7,12.6,8.7C415.4,400.5,410.4,403.9,401.6,403.9L401.6,403.9z"/>
</g>
<g>
	
		<ellipse transform="matrix(0.1602 -0.9871 0.9871 0.1602 632.1285 1080.8685)" class="st19" cx="951.3" cy="168.9" rx="40.3" ry="40.3"/>
	<circle class="st20" cx="951.3" cy="168.8" r="4.4"/>
	<path class="st20" d="M973.6,164.5c-1.5-1.3-3.7-2.4-6.3-3.3c-0.5-0.2-1-0.3-1.6-0.5c0.1-0.4,0.2-0.7,0.2-1.1
		c1.2-6,0.3-10.7-2.3-12.2c-1.3-0.7-3.1-0.7-5.1,0c-1.9,0.7-4,2-6,3.8c-0.4,0.3-0.8,0.7-1.2,1.1c-0.2-0.2-0.6-0.5-0.8-0.7
		c-4.5-4-9-5.6-11.7-4.1c-1.3,0.7-2.2,2.3-2.6,4.4c-0.3,1.9-0.2,4.4,0.3,7.1c0.1,0.6,0.2,1,0.4,1.6c-0.6,0.2-1.3,0.4-1.9,0.6
		c-5.4,1.9-8.6,4.8-8.6,7.7c0,1.5,0.9,3.1,2.6,4.5c1.6,1.4,3.9,2.6,6.5,3.5c0.4,0.2,0.9,0.3,1.4,0.4c-0.2,0.6-0.2,1.2-0.4,1.8
		c-1,5.6-0.2,9.8,2.3,11.3c0.6,0.4,1.5,0.6,2.3,0.6s1.9-0.2,2.9-0.6c2-0.7,4.1-2,6.2-3.9c0.3-0.3,0.7-0.6,1-1
		c0.5,0.4,0.9,0.8,1.4,1.2c3.1,2.7,6.2,4.2,8.6,4.2c0.9,0,1.7-0.2,2.3-0.6c1.3-0.8,2.3-2.3,2.7-4.5c0.4-2.1,0.3-4.6-0.2-7.3
		c-0.1-0.4-0.2-0.9-0.3-1.3c0.3-0.1,0.6-0.2,0.9-0.3c5.8-1.9,9.4-5,9.4-8.1C976.1,167.4,975.2,165.8,973.6,164.5L973.6,164.5z
		 M959.3,149.4c1.5-0.5,2.6-0.6,3.3-0.2c1.5,0.8,2.4,4.3,1.3,9.9c-0.1,0.3-0.2,0.6-0.2,1c-2.1-0.5-4.3-0.8-6.6-1
		c-1.4-1.9-2.7-3.7-4.2-5.2c0.4-0.4,0.7-0.7,1.1-1C955.8,151.2,957.7,150,959.3,149.4L959.3,149.4z M958.2,172.9
		c-0.8,1.4-1.5,2.7-2.3,3.8c-1.5,0.1-3,0.2-4.5,0.2s-3.1-0.1-4.5-0.2c-0.8-1.2-1.7-2.5-2.4-3.9c-0.8-1.3-1.5-2.7-2.1-4
		c0.6-1.4,1.4-2.7,2.1-4c0.8-1.3,1.6-2.6,2.4-3.9c1.5-0.1,3-0.2,4.5-0.2s3.1,0.1,4.5,0.2c0.8,1.2,1.6,2.5,2.4,3.8
		c0.8,1.4,1.5,2.7,2.2,4C959.7,170.2,959,171.6,958.2,172.9L958.2,172.9z M961.5,171.3c0.6,1.5,1.2,3,1.7,4.4
		c-1.5,0.3-3,0.6-4.6,0.8c0.5-0.8,1-1.7,1.5-2.5C960.6,173.1,961.1,172.2,961.5,171.3z M951.4,182.5c-1-1-2-2.3-3-3.6
		c1,0,1.9,0.1,2.9,0.1s2,0,3-0.1C953.3,180.3,952.3,181.5,951.4,182.5z M944.1,176.5c-1.6-0.2-3.1-0.4-4.6-0.7
		c0.4-1.5,1-2.9,1.6-4.4c0.5,0.9,0.9,1.7,1.4,2.6C943.1,174.9,943.5,175.7,944.1,176.5L944.1,176.5z M942.6,163.8
		c-0.5,0.9-1,1.7-1.4,2.6c-0.6-1.5-1.1-2.9-1.6-4.3c1.5-0.3,2.9-0.6,4.5-0.8C943.5,162.1,943.1,163,942.6,163.8z M951.3,155.3
		c1,1,1.9,2.3,2.9,3.6c-1-0.1-1.9-0.1-3-0.1c-1,0-1.9,0-2.9,0.1C949.4,157.6,950.3,156.4,951.3,155.3z M960,163.8
		c-0.5-0.9-1-1.7-1.5-2.5c1.6,0.2,3.1,0.5,4.5,0.8c-0.4,1.4-1,2.8-1.6,4.3C961.1,165.6,960.6,164.7,960,163.8z M938.6,158.6
		c-0.5-2.4-0.6-4.6-0.2-6.3c0.2-1.5,0.8-2.5,1.5-3c1.5-0.8,4.9,0,9.2,3.9l0.7,0.7c-1.5,1.5-2.8,3.3-4.2,5.2c-2.3,0.2-4.6,0.6-6.6,1
		C938.9,159.5,938.8,159.1,938.6,158.6L938.6,158.6z M936.3,174.9c-5.2-1.8-7.7-4.4-7.7-6.1c0-1.6,2.3-4,7.2-5.6
		c0.6-0.2,1.1-0.4,1.7-0.6c0.6,2,1.5,4.1,2.4,6.3c-1,2.2-1.9,4.3-2.4,6.4C937.1,175.1,936.7,175,936.3,174.9L936.3,174.9z
		 M941.2,188.8c-0.6,0-1-0.1-1.3-0.3c-1.4-0.8-2.3-3.9-1.3-9c0.1-0.6,0.2-1,0.3-1.6c2,0.5,4.3,0.8,6.7,1c1.4,1.9,2.8,3.7,4.3,5.2
		c-0.3,0.3-0.6,0.6-1,0.9C945.8,187.7,943,188.8,941.2,188.8L941.2,188.8z M964,178.9c1,5.4,0,8.8-1.4,9.6s-4.5,0.1-8.5-3.4
		c-0.4-0.3-0.8-0.7-1.2-1.1c1.4-1.5,2.8-3.3,4.2-5.2c2.4-0.2,4.7-0.6,6.7-1C963.9,178.1,964,178.5,964,178.9L964,178.9z
		 M966.1,174.9c-0.2,0.1-0.6,0.2-0.8,0.2c-0.6-1.9-1.5-4.1-2.5-6.3c1-2.1,1.8-4.2,2.4-6.2c0.5,0.2,1,0.3,1.5,0.5
		c2.3,0.8,4.3,1.9,5.6,2.9c1.1,1,1.8,1.9,1.8,2.8C974,170.5,971.5,173.1,966.1,174.9z"/>
</g>
<g>
	<ellipse class="st21" cx="112.7" cy="417.8" rx="85.1" ry="43"/>
	<path class="st11" d="M129.9,431.7l4.2-21.7c0.9-4.9,0.1-8.6-2.4-10.8c-2.4-2.3-6.5-3.3-12.7-3.3h-7.3l2.1-10.7
		c0.1-0.5,0-0.8-0.3-1.1c-0.3-0.3-0.7-0.5-1-0.5h-10c-0.7,0-1.3,0.5-1.4,1.1l-4.5,23.1c-0.5-2.6-1.4-4.8-3-6.6
		c-3-3.4-7.7-5.1-13.9-5.1H60.2c-0.7,0-1.3,0.5-1.4,1.1l-9.1,46.7c-0.1,0.5,0,0.8,0.3,1.1c0.2,0.3,0.7,0.5,1,0.5h10.2
		c0.7,0,1.3-0.5,1.4-1.1l2.2-11.3h7.5c4,0,7.3-0.5,9.9-1.3c2.6-0.9,5.1-2.3,7.3-4.3c1.7-1.6,3.2-3.4,4.3-5.4l-1.8,9.4
		c-0.1,0.5,0,0.8,0.3,1.1c0.2,0.3,0.7,0.5,1,0.5h10c0.7,0,1.3-0.5,1.4-1.1l4.9-25.6h7c3,0,3.8,0.6,4,0.8c0.2,0.2,0.7,1,0.1,3.5
		l-3.9,20.7c-0.1,0.5,0,0.8,0.3,1.1s0.7,0.5,1,0.5h10.3C129.2,432.8,129.8,432.4,129.9,431.7L129.9,431.7z M83.1,413.8
		c-0.7,3.3-1.8,5.6-3.5,7c-1.7,1.4-4.6,2.1-8.3,2.1h-4.6L70,406h5.8c4.3,0,6.1,0.9,6.7,1.7C83.6,408.6,83.8,410.8,83.1,413.8
		L83.1,413.8z"/>
	<path class="st11" d="M173.1,400.9c-3-3.4-7.7-5.1-13.9-5.1h-19.5c-0.7,0-1.3,0.5-1.4,1.1l-9,46.7c-0.1,0.5,0,0.8,0.3,1.1
		c0.2,0.3,0.7,0.5,1,0.5h10.2c0.7,0,1.3-0.5,1.4-1.1l2.2-11.3h7.5c4,0,7.3-0.5,9.9-1.3c2.6-0.9,5.1-2.3,7.3-4.3
		c1.8-1.7,3.3-3.5,4.5-5.6s1.9-4.2,2.4-6.6C177,409.1,176,404.3,173.1,400.9L173.1,400.9z M162.5,413.8c-0.7,3.3-1.8,5.6-3.5,7
		c-1.7,1.4-4.6,2.1-8.3,2.1H146l3.3-16.8h5.8c4.3,0,6.1,0.9,6.7,1.7C162.9,408.6,163,410.8,162.5,413.8L162.5,413.8z"/>
	<path d="M75.9,404.5c3.9,0,6.4,0.7,7.8,2.2c1.4,1.5,1.6,3.9,0.9,7.3c-0.7,3.7-2.1,6.2-4.1,7.8c-2.1,1.5-5,2.3-9.1,2.3h-6.2
		l3.8-19.5L75.9,404.5z M51.1,443.8h10.2l2.4-12.4h8.7c3.9,0,7-0.5,9.5-1.3c2.5-0.8,4.7-2.2,6.7-4.1c1.7-1.6,3.1-3.3,4.1-5.1
		c1-1.9,1.8-4,2.3-6.3c1.1-5.6,0.2-9.8-2.4-12.9c-2.7-3.1-7-4.7-12.9-4.7H60.2L51.1,443.8z"/>
	<path d="M102.5,384.8h10l-2.4,12.4h9c5.7,0,9.6,1,11.6,3c2.2,1.9,2.7,5.1,1.9,9.6l-4.2,21.7h-10.3l4-20.7c0.5-2.3,0.3-3.9-0.5-4.8
		c-0.8-0.9-2.5-1.3-5-1.3h-8.1l-5.1,26.7h-10L102.5,384.8z"/>
	<path d="M155.2,404.5c3.9,0,6.4,0.7,7.8,2.2s1.6,3.9,0.9,7.3c-0.7,3.7-2.1,6.2-4.1,7.8c-2.1,1.5-5,2.3-9.1,2.3h-6.2l3.8-19.5
		L155.2,404.5z M130.5,443.8h10.2l2.4-12.4h8.7c3.9,0,7-0.5,9.5-1.3s4.7-2.2,6.7-4.1c1.7-1.6,3.1-3.3,4.1-5.1c1-1.9,1.8-4,2.3-6.3
		c1.1-5.6,0.2-9.8-2.4-12.9c-2.7-3.1-7-4.7-12.9-4.7h-19.5L130.5,443.8z"/>
</g>
<g>
	<path class="st22" d="M201.7,605.4c-16.5,0-29.8,13.3-29.8,29.8c0,16.5,13.3,29.8,29.8,29.8s29.8-13.3,29.8-29.8
		C231.5,618.7,218.1,605.4,201.7,605.4z"/>
	<g>
		<path class="st11" d="M174.9,635.2c0-3.9,0.8-7.5,2.3-10.9l12.8,35C181,655,174.9,645.8,174.9,635.2z"/>
		<path class="st11" d="M201.7,662c-2.6,0-5.1-0.4-7.5-1.1l8-23.3l8.3,22.5c0.1,0.1,0.1,0.2,0.2,0.4
			C207.8,661.4,204.8,662,201.7,662L201.7,662z"/>
		<path class="st11" d="M205.4,622.7c1.6-0.1,3-0.2,3-0.2c1.5-0.1,1.3-2.3-0.1-2.2c0,0-4.4,0.4-7.1,0.4c-2.6,0-7-0.4-7-0.4
			c-1.5-0.1-1.6,2.1-0.1,2.2c0,0,1.4,0.1,2.8,0.2l4.2,11.5l-5.9,17.5l-9.8-29c1.6-0.1,3-0.2,3-0.2c1.5-0.1,1.3-2.3-0.1-2.2
			c0,0-4.4,0.4-7.1,0.4c-0.5,0-1.1,0-1.7,0c4.8-7.3,13.1-12.1,22.4-12.1c7,0,13.3,2.7,18.1,7c-0.1,0-0.2,0-0.4,0
			c-2.6,0-4.5,2.3-4.5,4.8c0,2.2,1.3,4.1,2.6,6.3c1,1.8,2.2,4.1,2.2,7.4c0,2.3-0.9,4.9-2,8.7l-2.7,8.9L205.4,622.7z"/>
		<path class="st11" d="M215.1,658.4l8.2-23.6c1.5-3.8,2-6.9,2-9.6c0-1-0.1-1.9-0.1-2.8c2.1,3.8,3.3,8.2,3.3,12.8
			C228.4,645.1,223.1,653.8,215.1,658.4L215.1,658.4z"/>
	</g>
</g>
<g>
	<path class="st23" d="M382,549.9H502V670H382V549.9z"/>
	<path class="st24" d="M447.2,643.5c0,11.7-6.9,17-16.9,17c-9,0-14.3-4.7-16.9-10.3l9.2-5.5c1.8,3.1,3.4,5.8,7.3,5.8
		c3.7,0,6.1-1.4,6.1-7.1V605h11.2L447.2,643.5z"/>
	<path class="st24" d="M474,660.5c-10.5,0-17.3-5-20.6-11.5l9.2-5.3c2.4,3.9,5.6,6.9,11.1,6.9c4.7,0,7.7-2.3,7.7-5.6
		c0-3.9-3.1-5.2-8.2-7.5l-2.8-1.2c-8.1-3.5-13.5-7.8-13.5-17c0-8.5,6.5-14.9,16.5-14.9c7.2,0,12.3,2.5,16,9l-8.8,5.6
		c-1.9-3.5-4-4.8-7.3-4.8s-5.4,2.1-5.4,4.8c0,3.4,2.1,4.7,6.9,6.9l2.8,1.2c9.6,4.1,15,8.3,15,17.7C492.7,655,484.7,660.5,474,660.5
		L474,660.5z"/>
</g>
<g>
	<circle class="st25" cx="678.4" cy="154" r="71.1"/>
	<path class="st11" d="M639.2,115.2l7.2,80l32,8.8l32-8.8l7.2-80H639.2z"/>
	<path class="st25" d="M702,141.3h-23.6h-13.9l0.9,10.1h13h22.8l-2.7,30.1l-20,5.6l-20.2-5.6l-1.4-15.7h9.8l0.7,8.2l11,3l10.9-3
		l1.2-12.7h-12.1h-21.9l-2.7-29.7h24.6H703L702,141.3z"/>
</g>
</svg>
